<svg xmlns="http://www.w3.org/2000/svg" viewBox="0 0 238.5 123.7"><defs><style>.cls-1{fill:none;stroke:#cb2227;stroke-miterlimit:10;stroke-width:4.5px;}</style></defs><title>Asset 3</title><g id="Layer_2" data-name="Layer 2"><g id="Layer_1-2" data-name="Layer 1"><path d="M0,24.7a37.09,37.09,0,0,1,1.4-9.3H77a36.79,36.79,0,0,1,1.6,9.3Zm50.2,8.7c-.2-3.3-2.2-4.9-6-4.9H34.5q-6.15,0-6,6v.1H0V26H78.6v8.6H50.2ZM0,36.4H28.5v8H0v-8ZM0,46.8H28.5v7.4H0V46.8ZM0,57.2H28.5V64H0V57.2ZM0,67.7H28.5v6.2H0V67.7ZM0,78.1H28.5v5.7H0V78.1ZM28.5,91.2a9,9,0,0,0,.2,2.4H0v-5H28.5v2.6Zm50.1,8c0,1.5-.1,2.9-.2,4.3H.2c-.1-1.3-.1-2.8-.1-4.3v-.1H78.7l-.1.1Zm-1.3,10.2a22.41,22.41,0,0,1-1.4,3.9H2.7a22.41,22.41,0,0,1-1.4-3.9ZM1.7,14.9C4.9,5.1,13.2.1,26.4,0H52.5C65.6.1,73.8,5.1,77.1,14.9Zm69.1,105a18.19,18.19,0,0,1-5.2,3.2H12.8a20.72,20.72,0,0,1-5.2-3.2ZM50,93.6a16.59,16.59,0,0,0,.2-2.4V88.6H78.6v5Zm.2-57.2H78.6v7.4H50.2Zm0,41.8H78.6v5.5H50.2Z"/><path d="M162.5,14.9H127.1V.4h28.4Zm-35.4.6h35.6l4.4,9.3H127l.1-9.3Zm0,10.4h40.7l4.1,8.6H127.1V25.9Zm0,10.5h45.8l3.9,8H127.2l-.1-8Zm0,10.4h50.8l3.6,7.4H127.2l-.1-7.4Zm0,10.4H238.5V64H127.2V57.2Zm83.6,11.6L208.2,74H158.1l-2.6-5.4V74H127.3V67.8H238.5V74H210.7V68.8Zm-83.6,9.3h28.2v5.7H127.1Zm0,10.5h28.2v5H127.1Zm0,10.4h28.2v4.4H127.1Zm0,10.4h28.2v3.9H127.1Zm0,10.5h28.2v3.2H127.1Zm32.8-41.8h46.2l-2.7,5.7H162.7ZM165,88.6h36l-2.4,5H167.5ZM170.1,99H196l-2.2,4.4H172.1Zm4.9,10.4h16l-1.9,3.9H176.8Zm5,10.5h5.9l-1.6,3.2h-2.8Zm7.7-73.1h50.7v7.4H184.1Zm5-10.4h45.8v8H189Zm5-10.5h40.7v8.6H193.6Zm5.1-10.4h35.7v9.3H198.4Zm7.3-15h28.4V15H203.1Zm.6,77.6h27.8v5.7H210.7Zm0,10.5h27.8v5H210.7Zm0,10.4h27.8v4.4H210.7Zm0,10.4h27.8v3.9H210.7Zm0,10.5h27.8v3.2H210.7Z"/><line class="cls-1" x1="102.9" y1="1.4" x2="102.9" y2="123.7"/></g></g></svg>